<svg width="2318" height="1571" viewBox="0 0 2318 1571" fill="none" xmlns="http://www.w3.org/2000/svg">
<path d="M1026.95 373.259H1018.32V136.836C1018.32 100.545 1003.9 65.7399 978.242 40.0783C952.581 14.4166 917.776 4.52522e-05 881.485 8.68445e-10H380.59C362.62 -6.40169e-05 344.827 3.53923 328.225 10.4158C311.623 17.2924 296.539 27.3715 283.832 40.0778C271.126 52.7841 261.047 67.8687 254.17 84.4703C247.293 101.072 243.754 118.865 243.754 136.835V1433.87C243.754 1451.84 247.293 1469.64 254.17 1486.24C261.046 1502.84 271.126 1517.92 283.832 1530.63C296.538 1543.34 311.623 1553.42 328.224 1560.29C344.826 1567.17 362.62 1570.71 380.589 1570.71H881.484C899.454 1570.71 917.247 1567.17 933.849 1560.29C950.451 1553.42 965.535 1543.34 978.242 1530.63C990.948 1517.92 1001.03 1502.84 1007.9 1486.24C1014.78 1469.64 1018.32 1451.84 1018.32 1433.87V541.549H1026.95V373.259Z" fill="#3F3D56"/>
<path d="M885.976 38.8362H820.592C823.599 46.2079 824.747 54.2059 823.934 62.1257C823.122 70.0455 820.374 77.6441 815.934 84.2519C811.493 90.8597 805.495 96.274 798.469 100.018C791.443 103.762 783.604 105.72 775.643 105.721H488.686C480.725 105.72 472.886 103.762 465.86 100.018C458.833 96.274 452.836 90.8596 448.395 84.2518C443.954 77.644 441.207 70.0456 440.394 62.1258C439.582 54.206 440.73 46.2079 443.736 38.8362H382.668C355.567 38.8362 329.575 49.6022 310.411 68.766C291.247 87.9297 280.481 113.921 280.481 141.023V1436.16C280.481 1449.58 283.124 1462.86 288.26 1475.26C293.395 1487.66 300.922 1498.93 310.411 1508.41C319.9 1517.9 331.165 1525.43 343.563 1530.57C355.961 1535.7 369.249 1538.34 382.668 1538.34H885.976C913.077 1538.34 939.069 1527.58 958.233 1508.41C977.397 1489.25 988.163 1463.26 988.163 1436.16V141.023C988.163 127.604 985.52 114.316 980.384 101.918C975.249 89.5201 967.722 78.255 958.233 68.7661C948.744 59.2771 937.479 51.7501 925.081 46.6147C912.683 41.4793 899.395 38.8362 885.976 38.8362H885.976ZM874.991 639.657C874.97 646.671 872.175 653.391 867.216 658.351C862.256 663.31 855.536 666.105 848.522 666.126H720.591C713.577 666.105 706.857 663.31 701.897 658.351C696.938 653.391 694.143 646.671 694.122 639.657V633.04C694.143 626.027 696.938 619.306 701.897 614.347C706.857 609.387 713.577 606.592 720.591 606.572H848.522C855.536 606.592 862.256 609.387 867.216 614.347C872.175 619.306 874.97 626.027 874.991 633.04V639.657ZM889.328 522.754C889.307 529.768 886.512 536.488 881.553 541.448C876.593 546.407 869.873 549.202 862.859 549.223H404.071C397.057 549.202 390.337 546.407 385.377 541.448C380.418 536.488 377.623 529.768 377.602 522.754V516.137C377.623 509.124 380.418 502.403 385.377 497.444C390.337 492.484 397.057 489.689 404.071 489.669H862.859C869.873 489.689 876.593 492.484 881.553 497.444C886.512 502.403 889.307 509.124 889.328 516.137V522.754ZM889.328 405.851C889.307 412.865 886.512 419.586 881.553 424.545C876.593 429.504 869.873 432.3 862.859 432.32H404.071C397.057 432.3 390.337 429.504 385.377 424.545C380.418 419.586 377.623 412.865 377.602 405.851V399.234C377.623 392.221 380.418 385.5 385.377 380.541C390.337 375.582 397.057 372.786 404.071 372.766H862.859C869.873 372.786 876.593 375.582 881.553 380.541C886.512 385.5 889.307 392.221 889.328 399.234V405.851ZM889.328 288.949C889.307 295.962 886.512 302.683 881.553 307.642C876.593 312.601 869.873 315.397 862.859 315.417H404.071C397.057 315.397 390.337 312.601 385.377 307.642C380.418 302.683 377.623 295.962 377.602 288.949V282.331C377.623 275.318 380.418 268.597 385.377 263.638C390.337 258.679 397.057 255.883 404.071 255.863H862.859C869.873 255.883 876.593 258.679 881.553 263.638C886.512 268.597 889.307 275.318 889.328 282.331V288.949Z" fill="white"/>
<path d="M413.996 535.989C422.523 535.989 429.436 529.076 429.436 520.549C429.436 512.022 422.523 505.109 413.996 505.109C405.469 505.109 398.556 512.022 398.556 520.549C398.556 529.076 405.469 535.989 413.996 535.989Z" fill="white"/>
<path d="M464.728 535.989C473.255 535.989 480.168 529.076 480.168 520.549C480.168 512.022 473.255 505.109 464.728 505.109C456.2 505.109 449.288 512.022 449.288 520.549C449.288 529.076 456.2 535.989 464.728 535.989Z" fill="white"/>
<path d="M515.459 535.989C523.986 535.989 530.899 529.076 530.899 520.549C530.899 512.022 523.986 505.109 515.459 505.109C506.932 505.109 500.019 512.022 500.019 520.549C500.019 529.076 506.932 535.989 515.459 535.989Z" fill="white"/>
<path d="M566.19 535.989C574.718 535.989 581.631 529.076 581.631 520.549C581.631 512.022 574.718 505.109 566.19 505.109C557.663 505.109 550.75 512.022 550.75 520.549C550.75 529.076 557.663 535.989 566.19 535.989Z" fill="white"/>
<path d="M731.62 652.892C740.147 652.892 747.06 645.979 747.06 637.452C747.06 628.924 740.147 622.012 731.62 622.012C723.092 622.012 716.18 628.924 716.18 637.452C716.18 645.979 723.092 652.892 731.62 652.892Z" fill="white"/>
<path d="M782.351 652.892C790.878 652.892 797.791 645.979 797.791 637.452C797.791 628.924 790.878 622.012 782.351 622.012C773.824 622.012 766.911 628.924 766.911 637.452C766.911 645.979 773.824 652.892 782.351 652.892Z" fill="white"/>
<path d="M833.083 652.892C841.61 652.892 848.523 645.979 848.523 637.452C848.523 628.924 841.61 622.012 833.083 622.012C824.555 622.012 817.643 628.924 817.643 637.452C817.643 645.979 824.555 652.892 833.083 652.892Z" fill="white"/>
<path d="M892.878 837.505H369.641C357.349 837.505 345.56 842.389 336.867 851.081C328.175 859.773 323.292 871.562 323.292 883.855V1138.79C323.292 1151.08 328.175 1162.87 336.867 1171.56C345.56 1180.25 357.349 1185.14 369.641 1185.14H892.878C905.17 1185.14 916.959 1180.25 925.652 1171.56C934.344 1162.87 939.227 1151.08 939.227 1138.79V883.855C939.227 871.562 934.344 859.773 925.652 851.081C916.96 842.389 905.17 837.505 892.878 837.505H892.878ZM356.696 869.123C357.729 868.936 382.23 864.767 402.518 876.974C422.805 889.18 430.599 912.782 430.92 913.779L431.741 916.324L429.108 916.791C425.352 917.378 421.555 917.657 417.754 917.625C405.695 917.856 393.794 914.856 383.285 908.938C362.998 896.735 355.204 873.133 354.883 872.135L354.063 869.59L356.696 869.123ZM470.277 1105.81H376.953C370.147 1105.81 363.619 1103.11 358.806 1098.29C353.993 1093.48 351.289 1086.95 351.289 1080.15C351.289 1073.34 353.993 1066.81 358.806 1062C363.619 1057.19 370.147 1054.48 376.953 1054.48H470.277C477.083 1054.48 483.611 1057.19 488.424 1062C493.237 1066.81 495.941 1073.34 495.941 1080.15C495.941 1086.95 493.237 1093.48 488.424 1098.29C483.611 1103.11 477.083 1105.81 470.277 1105.81V1105.81ZM894.899 1101.14C894.877 1108.56 891.92 1115.67 886.674 1120.92C881.429 1126.16 874.32 1129.12 866.901 1129.14H796.909C789.49 1129.12 782.382 1126.16 777.136 1120.92C771.89 1115.67 768.934 1108.56 768.912 1101.14V1059.15C768.934 1051.73 771.89 1044.62 777.136 1039.38C782.382 1034.13 789.49 1031.17 796.909 1031.15H866.901C874.32 1031.17 881.429 1034.13 886.674 1039.38C891.92 1044.62 894.877 1051.73 894.898 1059.15L894.899 1101.14Z" fill="#63FF7E"/>
<path d="M819.475 1092.49H791.333C789.324 1092.49 787.396 1093.29 785.975 1094.71C784.555 1096.13 783.756 1098.06 783.756 1100.07C783.756 1102.08 784.555 1104 785.975 1105.42C787.396 1106.85 789.324 1107.64 791.333 1107.64H819.475C821.485 1107.64 823.412 1106.85 824.833 1105.42C826.254 1104 827.052 1102.08 827.052 1100.07C827.052 1098.06 826.254 1096.13 824.833 1094.71C823.412 1093.29 821.485 1092.49 819.475 1092.49V1092.49Z" fill="#3F3D56"/>
<path d="M871.43 1092.49H843.288C841.279 1092.49 839.352 1093.29 837.931 1094.71C836.51 1096.13 835.711 1098.06 835.711 1100.07C835.711 1102.08 836.51 1104 837.931 1105.42C839.352 1106.85 841.279 1107.64 843.288 1107.64H871.43C873.44 1107.64 875.367 1106.85 876.788 1105.42C878.209 1104 879.007 1102.08 879.007 1100.07C879.007 1098.06 878.209 1096.13 876.788 1094.71C875.367 1093.29 873.44 1092.49 871.43 1092.49V1092.49Z" fill="#3F3D56"/>
<path d="M819.472 1071.1H791.33C789.32 1071.1 787.393 1071.9 785.972 1073.32C784.551 1074.74 783.753 1076.67 783.753 1078.68C783.753 1080.69 784.551 1082.62 785.972 1084.04C787.393 1085.46 789.32 1086.26 791.33 1086.26H819.472C821.481 1086.26 823.408 1085.46 824.829 1084.04C826.25 1082.62 827.049 1080.69 827.049 1078.68C827.049 1076.67 826.25 1074.74 824.829 1073.32C823.408 1071.9 821.481 1071.1 819.472 1071.1V1071.1Z" fill="#3F3D56"/>
<path d="M871.427 1071.1H843.285C841.275 1071.1 839.348 1071.9 837.927 1073.32C836.506 1074.74 835.708 1076.67 835.708 1078.68C835.708 1080.69 836.506 1082.62 837.927 1084.04C839.348 1085.46 841.275 1086.26 843.285 1086.26H871.427C873.436 1086.26 875.364 1085.46 876.785 1084.04C878.205 1082.62 879.004 1080.69 879.004 1078.68C879.004 1076.67 878.205 1074.74 876.785 1073.32C875.364 1071.9 873.436 1071.1 871.427 1071.1H871.427Z" fill="#3F3D56"/>
<path d="M819.472 1050.15H791.33C789.32 1050.15 787.393 1050.95 785.972 1052.37C784.551 1053.79 783.753 1055.71 783.753 1057.72C783.753 1059.73 784.551 1061.66 785.972 1063.08C787.393 1064.5 789.32 1065.3 791.33 1065.3H819.472C821.481 1065.3 823.408 1064.5 824.829 1063.08C826.25 1061.66 827.049 1059.73 827.049 1057.72C827.049 1055.71 826.25 1053.79 824.829 1052.37C823.408 1050.95 821.481 1050.15 819.472 1050.15V1050.15Z" fill="#3F3D56"/>
<path d="M871.427 1050.15H843.285C841.275 1050.15 839.348 1050.95 837.927 1052.37C836.506 1053.79 835.708 1055.71 835.708 1057.72C835.708 1059.73 836.506 1061.66 837.927 1063.08C839.348 1064.5 841.275 1065.3 843.285 1065.3H871.427C873.436 1065.3 875.364 1064.5 876.785 1063.08C878.205 1061.66 879.004 1059.73 879.004 1057.72C879.004 1055.71 878.205 1053.79 876.785 1052.37C875.364 1050.95 873.436 1050.15 871.427 1050.15H871.427Z" fill="#3F3D56"/>
<path d="M1255.28 933.537H1187.03V1001.79H1255.28V933.537Z" fill="#E6E6E6"/>
<path d="M1106.6 974.974H1218.72V1087.1H1106.6V974.974ZM1213.84 979.849H1111.47V1082.22H1213.84V979.849Z" fill="#3F3D56"/>
<path d="M68.2482 370.49H0V438.738H68.2482V370.49Z" fill="#E6E6E6"/>
<path d="M148.684 397.302H36.5615V285.18H148.684V397.302ZM41.4364 392.427H143.809V290.055H41.4364V392.427Z" fill="#3F3D56"/>
<path d="M2318 1544.52C2318 1544.52 2248.51 1162.75 2116 1100.8C2003.71 1048.26 1882.29 1012.85 1847.76 1003.24C1842.61 994.925 1836.65 987.135 1829.97 979.985C1782.78 930.639 1754.43 931.56 1749.84 932.169C1747.66 922.384 1746.1 912.471 1745.16 902.49C1745.02 900.928 1744.88 899.475 1744.76 897.929L1745.16 897.725C1744.88 894.773 1744.63 891.727 1744.41 888.587C1763.68 878.289 1781.41 865.35 1797.11 850.144C1797.31 850.816 1797.48 851.488 1797.7 852.175C1831.71 823.381 1865.02 793.805 1897.62 763.449C1906.98 754.686 1916.8 745.173 1919.98 732.817C1921 728.564 1921.4 724.186 1921.15 719.82C1921.57 710.448 1919.36 700.872 1918.98 691.375C1918.98 689.812 1919.16 688.36 1919.36 686.876C1921.54 671.333 1932.33 658.571 1941.19 645.527C1963.32 612.565 1974.87 573.619 1974.3 533.901C1974.54 514.87 1971.91 495.911 1966.5 477.666C1959.59 454.516 1945.22 430.195 1921.28 425.133C1912.01 423.181 1902.39 424.399 1892.94 423.79C1853.81 421.291 1824.52 389.424 1793.32 366.071C1755.23 337.707 1710.19 320.197 1662.98 315.397C1648.24 313.835 1633.02 313.726 1619 318.412C1587.51 328.909 1568.39 361.322 1538.06 374.647C1515.63 384.55 1489.71 382.942 1466.32 390.377C1431.5 401.468 1401.95 437.239 1401.17 473.995C1401.17 475.354 1401.17 476.713 1401.17 478.072C1401.17 478.307 1401.17 478.541 1401.17 478.76C1400.78 497.333 1407.4 516.25 1407.93 535.26C1407.93 536.978 1407.96 538.702 1408.01 540.431C1407.84 560.956 1405.39 581.545 1397.92 600.836C1393.9 611.224 1388.72 623.252 1389.56 633.64C1389.09 639.998 1390.33 645.965 1394.74 650.823L1402.27 644.168C1399.75 657.864 1398.48 671.762 1398.48 685.689C1398.48 755.889 1430.36 818.747 1480.64 861.048C1480.93 865.724 1481.21 870.733 1481.48 876.075C1482.67 899.225 1483.6 928.264 1483.34 959.912L1409.79 1027.63L1220.71 1113.54C1220.71 1113.54 1047.8 1150.13 1085.04 1393.45L1102.82 1544.54H1260.69L1260.33 1545.33H1494.64L1494.78 1544.54H2052.28L2052.17 1545.33H2074V1544.54L2318 1544.52ZM1751.23 936.043C1756.01 945.945 1759.77 956.308 1762.46 966.973C1756.94 956.711 1752.86 945.735 1750.34 934.356L1750.57 934.778L1751.23 936.043ZM1483.27 967.285C1483.27 970.263 1483.22 973.268 1483.12 976.298L1482.74 976.829C1482.72 973.614 1482.9 970.4 1483.27 967.207V967.285Z" fill="url(#paint0_linear)"/>
<path d="M1813.45 1005.56L1782.25 1304.45L1615.35 1357.65C1615.35 1357.65 1398.53 1316.97 1454.69 1199.6C1494.63 1116.12 1493.53 966.927 1489.56 887.747C1488 855.605 1485.88 834.996 1485.88 834.996C1485.88 834.996 1769.78 586.188 1746.38 809.959C1741.85 853.289 1741.59 887.168 1744.1 913.645C1754.63 1023.87 1813.45 1005.56 1813.45 1005.56Z" fill="#FDC2CC"/>
<path opacity="0.03" d="M1813.45 1005.56L1782.25 1304.45L1615.35 1357.65C1615.35 1357.65 1398.53 1316.97 1454.69 1199.6C1494.63 1116.12 1493.53 966.927 1489.56 887.747C1488 855.605 1485.88 834.996 1485.88 834.996C1485.88 834.996 1769.78 586.188 1746.38 809.959C1741.85 853.289 1741.59 887.168 1744.1 913.645C1754.63 1023.87 1813.45 1005.56 1813.45 1005.56Z" fill="black"/>
<path opacity="0.1" d="M1746.26 807.291C1741.72 850.514 1741.45 884.309 1743.97 910.721C1703.68 932.617 1657.68 941.867 1612.02 937.256C1566.35 932.646 1523.15 914.389 1488.1 884.887C1486.53 852.824 1484.4 832.266 1484.4 832.266C1484.4 832.266 1769.78 584.073 1746.26 807.291Z" fill="black"/>
<path d="M1635.52 928.662C1760.71 928.662 1862.2 827.174 1862.2 701.981C1862.2 576.788 1760.71 475.3 1635.52 475.3C1510.33 475.3 1408.84 576.788 1408.84 701.981C1408.84 827.174 1510.33 928.662 1635.52 928.662Z" fill="#FDC2CC"/>
<path opacity="0.03" d="M1635.52 928.662C1760.71 928.662 1862.2 827.174 1862.2 701.981C1862.2 576.788 1760.71 475.3 1635.52 475.3C1510.33 475.3 1408.84 576.788 1408.84 701.981C1408.84 827.174 1510.33 928.662 1635.52 928.662Z" fill="black"/>
<path opacity="0.1" d="M1262.59 1306.46C1262.59 1306.46 1334.34 1456.83 1338.15 1545.33Z" fill="black"/>
<path opacity="0.1" d="M2062.07 1394.21L2040.13 1545.33H2062.07V1394.21Z" fill="black"/>
<path opacity="0.1" d="M1277.22 1545.33L1393.81 1280.98C1393.81 1280.98 1426.67 1218.6 1434.5 1156.21C1442.32 1093.83 1484.58 995.575 1484.58 995.575C1484.58 995.575 1589.43 863.009 1637.94 881.724C1686.46 900.439 1595.69 970.621 1595.69 970.621C1595.69 970.621 1728.71 1022.09 1637.94 1174.93C1547.18 1327.77 1545.61 1299.7 1545.61 1299.7L1501.01 1545.33H1277.22Z" fill="black"/>
<path d="M1274.78 1545.33L1391.37 1280.99C1391.37 1280.99 1424.23 1218.61 1432.06 1156.23C1437.04 1116.57 1455.92 1062.41 1469.02 1028.21C1477.57 1005.85 1490.15 985.24 1506.15 967.39C1540.04 929.587 1601.61 868.626 1635.51 881.725C1684.02 900.44 1593.25 970.618 1593.25 970.618C1593.25 970.618 1726.28 1022.08 1635.51 1174.92C1544.74 1327.75 1543.17 1299.68 1543.17 1299.68L1498.57 1545.3L1274.78 1545.33Z" fill="#FDC2CC"/>
<path opacity="0.15" d="M1703.77 580.109C1706.46 580.109 1708.64 577.927 1708.64 575.234C1708.64 572.542 1706.46 570.36 1703.77 570.36C1701.07 570.36 1698.89 572.542 1698.89 575.234C1698.89 577.927 1701.07 580.109 1703.77 580.109Z" fill="white"/>
<path opacity="0.15" d="M1683.05 587.422C1685.07 587.422 1686.7 585.785 1686.7 583.766C1686.7 581.746 1685.07 580.109 1683.05 580.109C1681.03 580.109 1679.39 581.746 1679.39 583.766C1679.39 585.785 1681.03 587.422 1683.05 587.422Z" fill="white"/>
<path opacity="0.1" d="M1473.43 415.949C1496.03 408.63 1521.13 410.209 1542.81 400.482C1572.14 387.314 1590.62 355.442 1621.06 345.12C1634.62 340.522 1649.34 340.694 1663.57 342.164C1709.34 346.932 1752.93 364.171 1789.6 392.006C1819.77 414.979 1848.08 446.304 1885.91 448.76C1895.05 449.354 1904.34 448.15 1913.3 450.073C1936.48 455.046 1950.37 478.958 1957.05 501.682C1964.76 528.612 1966.57 556.894 1962.35 584.59C1958.13 612.285 1947.97 638.739 1932.58 662.138C1924.02 674.962 1913.58 687.52 1911.47 702.8C1909.41 717.782 1915.78 733.312 1912.06 747.981C1908.94 760.132 1899.56 769.485 1890.44 778.102C1858.93 807.93 1826.73 836.993 1793.83 865.289C1776.74 810.928 1801.82 752.391 1797.91 695.543C1796.35 673.398 1788.54 649.22 1769.02 638.774C1750.76 629.015 1727.41 634.082 1708.93 624.699C1688.31 614.299 1679.84 589.667 1664.25 572.621C1637.68 543.532 1591.58 539.779 1554.44 552.915C1517.3 566.052 1486.94 593.076 1457.57 619.428L1404.18 667.362C1393.76 655.601 1401.66 637.554 1407.3 622.853C1415.71 600.818 1417.55 577.062 1416.99 553.666C1416.54 534.899 1410.07 516.367 1410.44 498.101C1411.19 462.068 1439.75 426.849 1473.43 415.949Z" fill="black"/>
<path d="M1473.43 411.074C1496.03 403.755 1521.13 405.334 1542.81 395.607C1572.14 382.439 1590.62 350.567 1621.06 340.245C1634.62 335.647 1649.34 335.819 1663.57 337.289C1709.34 342.057 1752.93 359.296 1789.6 387.131C1819.77 410.104 1848.08 441.429 1885.91 443.885C1895.05 444.479 1904.34 443.275 1913.3 445.198C1936.48 450.172 1950.37 474.084 1957.05 496.807C1964.76 523.737 1966.57 552.019 1962.35 579.715C1958.13 607.41 1947.97 633.864 1932.58 657.263C1924.02 670.087 1913.58 682.646 1911.47 697.925C1909.41 712.907 1915.78 728.437 1912.06 743.106C1908.94 755.258 1899.56 764.61 1890.44 773.227C1858.93 803.056 1826.73 832.118 1793.83 860.414C1776.74 806.053 1801.82 747.516 1797.91 690.668C1796.35 668.524 1788.54 644.346 1769.02 633.899C1750.76 624.14 1727.41 629.207 1708.93 619.824C1688.31 609.424 1679.84 584.792 1664.25 567.746C1637.68 538.657 1591.58 534.904 1554.44 548.041C1517.3 561.177 1486.94 588.202 1457.57 614.553L1404.18 662.487C1393.76 650.726 1401.66 632.679 1407.3 617.978C1415.71 595.943 1417.55 572.187 1416.99 548.791C1416.54 530.024 1410.07 511.492 1410.44 493.226C1411.19 457.193 1439.75 421.974 1473.43 411.074Z" fill="#865A61"/>
<defs>
<linearGradient id="paint0_linear" x1="1698.88" y1="1545.3" x2="1729.36" y2="-181.589" gradientUnits="userSpaceOnUse">
<stop stop-color="#5EC867"/>
<stop offset="0.54" stop-color="#808080" stop-opacity="0.12"/>
<stop offset="1" stop-color="#808080" stop-opacity="0.1"/>
</linearGradient>
</defs>
</svg>
