<svg xmlns="http://www.w3.org/2000/svg" width="256" height="256" viewBox="0 0 100 100"><rect width="100" height="100" rx="20" fill="#6ab618"></rect><path fill="#fff" d="M53.78 43.20L30.74 43.20Q30.47 42.84 30.20 42.03Q29.93 41.22 29.93 40.41L29.93 40.41Q29.93 38.88 30.65 38.16Q31.37 37.44 32.45 37.44L32.45 37.44L69.35 37.44Q69.62 37.98 69.84 38.75Q70.07 39.51 70.07 40.23L70.07 40.23Q70.07 41.76 69.35 42.48Q68.63 43.20 67.55 43.20L67.55 43.20L60.62 43.20Q60.53 46.62 59.31 49.59Q58.10 52.56 55.76 54.81Q53.42 57.06 49.95 58.41Q46.49 59.76 41.90 59.76L41.90 59.76L60.26 73.71Q60.08 75.69 59.05 76.82Q58.01 77.94 56.30 77.94L56.30 77.94Q55.04 77.94 53.91 77.27Q52.79 76.59 50.99 75.06L50.99 75.06L33.71 59.40Q33.44 58.50 33.44 57.60L33.44 57.60Q33.44 55.62 34.97 54.63L34.97 54.63L40.10 54.63Q46.58 54.63 50.13 51.48Q53.69 48.33 53.78 43.20L53.78 43.20ZM67.55 27.90L30.74 27.90Q30.47 27.45 30.20 26.64Q29.93 25.83 29.93 25.02L29.93 25.02Q29.93 23.49 30.65 22.77Q31.37 22.05 32.45 22.05L32.45 22.05L69.35 22.05Q69.62 22.50 69.84 23.31Q70.07 24.12 70.07 24.84L70.07 24.84Q70.07 26.55 69.35 27.23Q68.63 27.90 67.55 27.90L67.55 27.90Z"></path></svg>